<?xml version="1.0" encoding="utf-8"?>
<!-- Generator: Adobe Illustrator 27.1.1, SVG Export Plug-In . SVG Version: 6.00 Build 0)  -->
<svg version="1.1" id="Layer_1" xmlns="http://www.w3.org/2000/svg" xmlns:xlink="http://www.w3.org/1999/xlink" x="0px" y="0px"
	 viewBox="0 0 279.6 61.4" style="enable-background:new 0 0 279.6 61.4;" xml:space="preserve">
<style type="text/css">
	.st0{fill:#FFFFFF;}
	.st1{fill:#0C0C0C;}
</style>
<g>
	<path class="st0" d="M99.1,22.4c-3.6-4.3-9.7-3.7-13-1c-2.7,2.2-3.9,5.2-4.2,8.6c-0.3,3.7,0.4,7.1,2.7,10.1
		c3.9,4.8,11.4,4.6,14.3,0.5c0,0,0.1,0,0.3,0v2.7h7.1V11.4h-7.4V22.4z M95.4,37c-2.2,0.6-4.6-0.6-5.4-2.8c-0.7-1.7-0.8-3.6-0.1-5.4
		c0.5-1.3,1.5-2.3,2.8-2.8c2.5-0.9,5.2,0.4,6.1,2.8c0.2,0.8,0.4,1.7,0.6,2.5C99.2,34.4,97.8,36.4,95.4,37z"/>
	<path class="st0" d="M240.4,19.6h-8.6c-1.9,2.6-3.8,5.2-5.7,7.9h-2.3V11.4h-7.3v31.8h7.4v-9.2h2c2.1,3.1,4.2,6.2,6.2,9.2h8.7
		l-8.6-12.4C234.9,27.1,237.6,23.4,240.4,19.6z"/>
	<path class="st0" d="M191.7,34.7c0-2.2,0-4.3,0-6.5c-0.2-4.7-2.6-7.7-7-8.7c-2.6-0.6-5.3-0.5-7.9,0.2c-1.8,0.4-3.4,1.3-4.6,2.6
		c-1.3,1.3-2.1,3.1-2.2,4.9h7.6c0.8-2,2.8-2.8,5-2.1c1.5,0.5,2.3,2,2,3.8c-2.3,0-4.5,0-6.8,0c-1.8,0-3.6,0.5-5.2,1.4
		c-2.4,1.4-3.6,3.4-3.6,6.2c0.1,2.8,1.4,4.8,3.8,6c3,1.5,6.5,1.5,9.5-0.1c1.1-0.6,2-1.5,2.9-2.3c0.6,1.7,2.2,2.9,4,3
		c1.6,0.2,3.2,0.2,4.8,0.2l0-6.1C191.8,37,191.7,36.9,191.7,34.7z M177.5,37.6c-0.7-0.3-1.2-1-1.2-1.8c0-0.8,0.5-1.5,1.3-1.7
		c0.5-0.2,1-0.3,1.5-0.4c1.8,0,3.6,0,5.4,0C184.2,37.7,179.8,38.6,177.5,37.6z"/>
	<path class="st0" d="M259.1,19.6c-1.6,4.9-3.1,9.7-4.7,14.8c-1.7-5.1-3.3-10-4.9-14.8h-8c3,8,6,16,8.9,24c-0.6,2-1.3,2.6-3.3,2.6
		c-1,0-1.9,0-2.9,0v6.4c1.8,0,3.5,0,5.2,0c3.4-0.1,5.7-1.8,7.2-4.9c0.3-0.6,0.5-1.2,0.8-1.9c3.1-8.4,6.1-16.8,9.2-25.3
		c0.1-0.3,0.2-0.6,0.3-1H259.1z"/>
	<path class="st0" d="M70.5,20.7c0,2.3,0,4.7,0,7c0,1.7,0,3.4-0.1,5.1c-0.2,2.5-2,4-4.4,3.9c-2.2-0.1-3.4-1.6-3.5-4.1
		c0-0.4,0-0.8,0-1.3c0-3.6,0-7.2,0-10.8v-1h-7.4c0,0.1-0.1,0.2-0.1,0.3c0,5.3-0.2,10.7,0.2,16c0.5,7.6,7.8,9.2,12.6,6.5
		c1-0.6,1.9-1.5,2.9-2.3v3.1h7.2V19.6h-7.4L70.5,20.7z"/>
	<path class="st0" d="M135,19.2c-7.2,0-12.4,5.2-12.4,12.2c0,7.1,5.2,12.2,12.3,12.2c7.2,0,12.4-5.1,12.4-12.2
		C147.3,24.4,142.2,19.2,135,19.2z M134.9,37.1c-2.4,0-4.2-1.6-4.6-4.1c-0.2-1.3-0.1-2.6,0.2-3.8c0.4-2.1,2.3-3.4,4.4-3.4
		c2-0.1,3.9,1.2,4.5,3.2c0.2,0.8,0.4,1.6,0.5,2.4c-0.1,0.7-0.2,1.3-0.3,1.8C139,35.7,137.3,37.1,134.9,37.1z"/>
	<path class="st0" d="M162.5,36.7c-1.2-0.1-1.8-0.6-2-1.8c-0.1-1-0.1-1.9-0.1-2.9c0-2,0-3.9,0-6h6v-6.5h-6v-5H153c0,1.1,0,2.1,0,3.1
		c0,1.4-0.5,1.8-1.9,1.9c-0.6,0-1.1,0-1.7,0v6.5h3.6c0,0.5,0,0.8,0,1.2c0,3.1,0,6.2,0.1,9.3c0.1,3.8,2.2,6.2,6,6.6
		c2.2,0.3,4.5,0.1,6.7,0.2c0.2,0,0.4,0,0.6-0.1v-6.5C165.1,36.8,163.8,36.8,162.5,36.7z"/>
	<path class="st0" d="M204.1,23.3v-3.7H197v23.6h7.3c0-1.8,0-3.5,0-5.2c0-2.3,0-4.6,0.2-6.9c0.2-2.7,2-4.4,4.7-4.6
		c0.9-0.1,1.8-0.1,2.7-0.1c0.3,0,0.7,0,1,0v-6.8C209.3,19.3,206.2,20,204.1,23.3z"/>
	<rect x="111.6" y="19.6" class="st0" width="7.3" height="23.6"/>
	<path class="st0" d="M115.5,8.4c-2.6-0.1-4.7,1.8-4.9,4.4c0,0,0,0.1,0,0.1c0.1,2.5,2.1,4.4,4.6,4.3c2.6,0,4.7-1.9,4.7-4.4
		C119.8,10.5,117.9,8.5,115.5,8.4z"/>
	<polygon class="st0" points="12,27.9 8.2,32.2 16.6,40.9 27.5,27.9 	"/>
	<polygon class="st0" points="18.4,42.1 42.6,42.1 30.8,27.4 	"/>
	<polygon class="st0" points="23.1,14 44.3,40.7 50.8,33 29.7,6.5 	"/>
</g>
</svg>
