<?xml version="1.0" encoding="utf-8"?>
<!-- Generator: Adobe Illustrator 27.1.1, SVG Export Plug-In . SVG Version: 6.00 Build 0)  -->
<svg version="1.1" id="Layer_1" xmlns="http://www.w3.org/2000/svg" xmlns:xlink="http://www.w3.org/1999/xlink" x="0px" y="0px"
	 viewBox="0 0 716.9 370.9" style="enable-background:new 0 0 716.9 370.9;" xml:space="preserve">
<style type="text/css">
	.st0{fill:#FFFFFF;}
	.st1{fill:#0C0C0C;}
</style>
<g>
	<path class="st0" d="M76.8,50.7c9.4,1.4,14.2,9.2,14.2,17c0,7.8-4.7,15.6-14.2,17c0,0-19.6,2.6-26.1,3.3c-0.7,0.1-1.2,0.7-1.1,1.4
		l0,20.2c0,6.6-5.4,12-12,12H22.9c-6.6,0-12-5.4-12-12v-8.2v-3.7c0,0,0,0,0,0c0,0,0,0,0,0v-0.9c0-0.3,0-0.5,0-0.8c0-0.1,0-0.3,0-0.4
		h0v-0.1c0,0,0,0,0-0.1V84.9h0c0.1-5.2,5-11,11.2-13.3c0,0,0,0,0.1,0c4.9-1.8,10-2.7,15.1-2.7h6.2c0.7,0,1.3-0.6,1.3-1.3
		c0-0.7-0.6-1.3-1.3-1.3h-6.2c-5.2,0-10.3-0.9-15.1-2.7c0,0,0,0-0.1,0c-6.3-2.3-11.2-8.1-11.2-13.3h0V39.9c0,0,0,0,0-0.1v-0.1h0
		c0-0.1,0-0.3,0-0.4c0-0.3,0-0.5,0-0.8v-0.9c0,0,0,0,0,0c0,0,0,0,0,0l0-5.4l0-5.4c0,0,0,0,0,0c0,0,0,0,0,0v-0.9
		c0-6.3,4.9-11.6,11.2-12h57.4c6.3,0.4,11.2,5.7,11.2,12v0.9c0,0,0,0,0,0c0,0,0,0,0,0v5.4v5.4c0,0,0,0,0,0c0,0,0,0,0,0v0.9
		c0,0,0,0.1,0,0.1c-0.1,5.9-5.3,10.3-11.2,9.7l-35.4-4.5c-0.7-0.1-1.3,0.4-1.4,1.1c-0.1,0.7,0.4,1.3,1.1,1.4L76.8,50.7L76.8,50.7z"
		/>
	<path class="st0" d="M161.6,13.8c6.6,0,12,5.4,12,12v71c0,13.7-11.2,24.8-24.8,24.8h-30.5c-13.5,0-24.6-11.1-24.6-24.6V67.7V25.5
		c0-6.5,5.3-11.8,11.8-11.8h14.8c6.6,0,12,5.4,12,12v64.4c0,0.7,0.6,1.3,1.3,1.3c0.7,0,1.3-0.6,1.3-1.3v-4.8V25.8
		c0-6.6,5.4-12,12-12L161.6,13.8L161.6,13.8z"/>
	<path class="st0" d="M188.1,13.8h27c0.2,0,0.5,0,0.7,0h14.6c0.2,0,0.5,0,0.7,0h6h20.7c6.6,0,12,5.4,12,12v9.7
		c0.1,7.2-6.3,11.1-13.6,11.7L227,49.4c-0.7-0.1-1.2,0.2-1.3,0.9c-0.1,0.7,0.5,1.1,1.2,1.2c16.4,2,15.5,7.7,15.5,16.7V84v25.5
		c0,6.6-5.4,12-12,12h-14.8c-6.5,0-11.8-5.3-11.8-11.8V67.7V51.4l-14.2,0.8c-1.2,0.1-2.5,0.1-3.7-0.1c-5.5-1.1-9.6-6-9.6-11.8V25.5
		C176.3,19,181.6,13.7,188.1,13.8L188.1,13.8z"/>
	<path class="st0" d="M340.5,13.8c6.6,0,12,5.4,12,12v71c0,13.7-11.2,24.8-24.8,24.8h-30.5c-13.5,0-24.6-11.1-24.6-24.6V67.7V25.5
		c0-6.5,5.3-11.8,11.8-11.8h14.8c6.6,0,12,5.4,12,12v64.4c0,0.7,0.6,1.3,1.3,1.3c0.7,0,1.3-0.6,1.3-1.3v-4.8V25.8
		c0-6.6,5.4-12,12-12L340.5,13.8L340.5,13.8z"/>
	<path class="st0" d="M435.3,42.4c-0.8,14.4-11.6,24-32.6,24c-0.7,0-1.3,0.6-1.3,1.3c0,0.7,0.6,1.3,1.3,1.3h6.2
		c5.2,0,10.3,0.9,15.2,2.7l0,0c6.3,2.3,11.2,8.1,11.2,13.3h0l0,24.7c0,6.6-5.4,12-12,12h-0.1h-14.5h-0.1c-6.6,0-12-5.4-12-12V92.6
		c0-0.7-0.6-1.3-1.3-1.3c-0.7,0-1.3,0.6-1.3,1.3v16.9c0,6.6-5.4,12-12,12h-14.8c-6.5,0-11.8-5.3-11.8-11.8V69.3
		c0-0.5-0.1-1.1-0.1-1.6c0-7.8,4.7-15.6,14.2-17l32.8-4.3c0.7-0.1,1.2-0.7,1.1-1.4s-0.7-1.2-1.4-1.1l-35.4,4.5
		c-5.8,0.6-11.1-3.8-11.2-9.7c0,0,0-0.1,0-0.1v-0.9c0,0,0,0,0,0s0,0,0,0v-5.4v-5.4c0,0,0,0,0,0c0,0,0,0,0,0v-0.9
		c0-6.3,4.9-11.6,11.3-12h40C422.4,13.8,435.3,26.6,435.3,42.4L435.3,42.4z"/>
	<path class="st0" d="M517.9,97.7C517.9,97.7,517.9,97.7,517.9,97.7l0,5.5l0,5.4c0,0,0,0,0,0c0,0,0,0,0,0v0.9
		c0,6.3-4.9,11.6-11.2,12h-57.4c-6.3-0.4-11.2-5.7-11.2-12v-0.9c0,0,0,0,0,0c0,0,0,0,0,0v-5.4v-5.4c0,0,0,0,0,0c0,0,0,0,0,0v-0.9
		c0-0.3,0-0.5,0-0.8c0-0.1,0-0.3,0-0.4h0v-0.1c0,0,0,0,0-0.1V84.9l0,0c0.1-5.2,5-11,11.2-13.3c0,0,0,0,0.1,0
		c4.9-1.8,10-2.7,15.1-2.7h6.2c0.7,0,1.3-0.6,1.3-1.3s-0.6-1.3-1.3-1.3h-6.2c-5.2,0-10.3-0.9-15.1-2.7c0,0,0,0-0.1,0
		c-6.3-2.3-11.2-8.1-11.2-13.3l0,0V39.9c0,0,0,0,0-0.1v-0.1h0c0-0.1,0-0.3,0-0.4c0-0.2,0-0.5,0-0.8v-0.9c0,0,0,0,0,0c0,0,0,0,0,0
		v-5.4v-5.4c0,0,0,0,0,0c0,0,0,0,0,0v-0.9c0-6.3,4.9-11.6,11.2-12h57.4c6.3,0.4,11.2,5.7,11.2,12v0.9c0,0,0,0,0,0c0,0,0,0,0,0l0,5.4
		l0,5.4c0,0,0,0,0,0c0,0,0,0,0,0v0.9c0,0,0,0.1,0,0.1c-0.1,5.9-5.3,10.3-11.2,9.7l-35.4-4.5c-0.7-0.1-1.3,0.4-1.4,1.1
		s0.4,1.3,1.1,1.4l32.8,4.3c9.5,1.4,14.2,9.2,14.2,17c0,7.8-4.7,15.6-14.2,17l-32.8,4.3c-0.7,0.1-1.2,0.7-1.1,1.4
		c0.1,0.7,0.7,1.2,1.4,1.1l35.4-4.5c5.8-0.6,11.1,3.8,11.2,9.7c0,0,0,0.1,0,0.1V97.7C517.9,97.7,517.9,97.7,517.9,97.7L517.9,97.7z"
		/>
	<path class="st0" d="M109.7,170.5c11.2,1.4,19.6,11,19.6,22.3v17.9c0,15.8-12.8,28.6-28.6,28.6H60.8c-6.3-0.4-11.2-5.7-11.2-12
		v-0.9c0,0,0,0,0,0c0,0,0,0,0,0v-8.3v-5.4c0,0,0,0,0,0c0,0,0,0,0,0v-0.9c0,0,0-0.1,0-0.1c0.1-5.8,5.3-10.3,11.1-9.7l35.3,4.5
		c0.7,0.1,1.3-0.4,1.4-1.1s-0.4-1.3-1.1-1.4l-27.2-3.5c-11.2-1.4-19.6-11-19.6-22.3l0-17.9c0-15.8,12.8-28.6,28.6-28.6H118
		c6.3,0.4,11.2,5.7,11.2,12v0.9c0,0,0,0,0,0c0,0,0,0,0,0v5.4v8.3c0,0,0,0,0,0c0,0,0,0,0,0v0.9c0,0,0,0.1,0,0.1
		c-0.1,5.8-5.3,10.3-11.1,9.7l-35.3-4.5c-0.7-0.1-1.3,0.4-1.4,1.1c-0.1,0.7,0.4,1.3,1.1,1.4h0l0,0L109.7,170.5L109.7,170.5z"/>
	<path class="st0" d="M212,156.3v8v4.6v1.3v32.8v11.4c0,13.7-11.2,24.8-24.8,24.8h-30.5c-13.5,0-24.6-11.1-24.6-24.6v-29.3v-29.3
		c0-13.5,11.1-24.6,24.6-24.6h30.5C200.8,131.5,212,142.7,212,156.3z M173.4,172v-3v-1.2v-2.4V163c0-0.7-0.6-1.3-1.3-1.3
		c-0.7,0-1.3,0.6-1.3,1.3v44.9c0,0.7,0.6,1.3,1.3,1.3c0.7,0,1.3-0.6,1.3-1.3v-4.8v-29V172z"/>
	<path class="st0" d="M282.6,131.5c6.6,0,12,5.4,12,12v71c0,13.7-11.2,24.8-24.8,24.8h-30.5c-13.5,0-24.6-11.1-24.6-24.6v-29.3
		v-42.1c0-6.5,5.3-11.8,11.8-11.8h14.8c6.6,0,12,5.4,12,12v64.4c0,0.7,0.6,1.3,1.3,1.3c0.7,0,1.3-0.6,1.3-1.3v-4.8v-59.6
		c0-6.6,5.4-12,12-12L282.6,131.5L282.6,131.5z"/>
	<path class="st0" d="M370.4,131.5c6.5,0,11.8,5.3,11.8,11.8v42.2v41.9c0,6.6-5.4,12-12,12h-11.8c-3.8,0-7.6-0.8-10.9-2.6
		c-6.1-3.4-10.6-9.5-11.5-16.9l-3.5-27.3c-0.1-0.7-0.7-1.2-1.4-1.1c-0.7,0.1-1.2,0.7-1.1,1.4l4.5,35.4c0.6,5.7-3.7,10.9-9.3,11.2
		h-16c-6.5,0-11.8-5.3-11.8-11.8v-42.1v-42c0-6.6,5.4-12,12-12h12c3.8,0,7.5,0.8,10.9,2.6c6.2,3.4,10.6,9.5,11.6,17l3.5,27.3
		c0.1,0.7,0.7,1.2,1.4,1.1c0.7-0.1,1.2-0.7,1.1-1.4l-4.5-35.4c-0.6-5.8,3.8-11.1,9.7-11.2L370.4,131.5L370.4,131.5z"/>
	<path class="st0" d="M423.5,163v2.4v6.6v2.1c0,6-5.3,10.7-11.3,9.9l-17.4-2.2c-5.8-0.7-10.1-5.8-10-11.5v-27
		c0-6.5,5.3-11.8,11.8-11.8h43.5c13.5,0,24.6,11.1,24.6,24.6v29.3v29.3c0,13.5-11.1,24.6-24.6,24.6h-43.5c-6.5,0-11.8-5.3-11.8-11.8
		v-24.4v-4.3v-4.6c0,0,0,0,0,0c0.1-5.9,5.3-10.3,11.1-9.7l18,2.3c5.4,0.7,9.5,5.3,9.5,10.8v1.2v4.2v4.8c0,0.7,0.6,1.3,1.3,1.3
		c0.7,0,1.3-0.6,1.3-1.3V163c0-0.7-0.6-1.3-1.3-1.3C424.1,161.6,423.5,162.2,423.5,163L423.5,163z"/>
	<path class="st0" d="M572.7,156.3v8v4.6v1.3v32.8v11.4c0,13.7-11.2,24.8-24.8,24.8h-30.5c-13.5,0-24.6-11.1-24.6-24.6v-29.3v-29.3
		c0-13.5,11.1-24.6,24.6-24.6h30.5C561.5,131.5,572.7,142.7,572.7,156.3z M534.1,172v-3v-1.2v-2.4V163c0-0.7-0.6-1.3-1.3-1.3
		c-0.7,0-1.3,0.6-1.3,1.3v44.9c0,0.7,0.6,1.3,1.3,1.3c0.7,0,1.3-0.6,1.3-1.3v-4.8v-29V172z"/>
	<path class="st0" d="M641.3,168.4c9.4,1.4,14.2,9.2,14.2,17c0,7.8-4.7,15.6-14.2,17c0,0-19.6,2.6-26.1,3.3
		c-0.7,0.1-1.2,0.7-1.1,1.4l0,20.2c0,6.6-5.4,12-12,12h-14.6c-6.6,0-12-5.4-12-12v-8.2v-3.7c0,0,0,0,0,0c0,0,0,0,0,0v-0.9
		c0-0.3,0-0.5,0-0.8c0-0.1,0-0.3,0-0.4h0v-0.1c0,0,0,0,0-0.1v-10.6h0c0.1-5.2,5-11,11.2-13.3c0,0,0,0,0.1,0c4.9-1.8,10-2.7,15.1-2.7
		h6.2c0.7,0,1.3-0.6,1.3-1.3c0-0.7-0.6-1.3-1.3-1.3h-6.2c-5.2,0-10.3-0.9-15.1-2.7c0,0,0,0-0.1,0c-6.3-2.3-11.2-8.1-11.2-13.3h0
		v-10.6c0,0,0,0,0-0.1v-0.1h0c0-0.1,0-0.3,0-0.4c0-0.3,0-0.5,0-0.8v-0.9c0,0,0,0,0,0c0,0,0,0,0,0l0-5.4l0-5.4c0,0,0,0,0,0
		c0,0,0,0,0,0v-0.9c0-6.3,4.9-11.6,11.2-12h57.4c6.3,0.4,11.2,5.7,11.2,12v0.9c0,0,0,0,0,0c0,0,0,0,0,0v5.4v5.4c0,0,0,0,0,0
		c0,0,0,0,0,0v0.9c0,0,0,0.1,0,0.1c-0.1,5.9-5.3,10.3-11.2,9.7l-35.4-4.5c-0.7-0.1-1.3,0.4-1.4,1.1c-0.1,0.7,0.4,1.3,1.1,1.4
		L641.3,168.4L641.3,168.4z"/>
	<path class="st0" d="M209.1,304.4c10.2-0.4,26.4,6.6,26.4,27.6h0c0,13.8-11.2,25-25,25h-43.6c-6.3-0.4-11.3-5.7-11.3-12v-0.9
		c0,0,0,0,0,0c0,0,0,0,0,0v-5.4v-5.4c0,0,0,0,0,0c0,0,0,0,0,0v-0.9c0,0,0-0.1,0-0.1c0.1-5.9,5.3-10.3,11.2-9.7l35.4,4.5
		c0.7,0.1,1.3-0.4,1.4-1.1c0.1-0.7-0.4-1.3-1.1-1.4l-36.8-4.7c-5.8-0.7-10.1-5.7-10.1-11.5v-5c0,0,0,0,0,0c0,0,0,0,0,0v-5
		c0-5.8,4.3-10.7,10.1-11.5l36.8-4.7c0.7-0.1,1.2-0.7,1.1-1.4c-0.1-0.7-0.7-1.2-1.4-1.1l-35.4,4.5c-5.8,0.6-11.1-3.8-11.2-9.7
		c0,0,0-0.1,0-0.1v-0.9c0,0,0,0,0,0c0,0,0,0,0,0v-5.4v-5.4c0,0,0,0,0,0c0,0,0,0,0,0v-0.9c0-6.3,4.9-11.6,11.3-12h43.6
		c13.8,0,25,11.2,25,25h0c0,21-16.2,28-26.4,27.6h-6.2c-0.7,0-1.3,0.6-1.3,1.3c0,0.7,0.6,1.3,1.3,1.3L209.1,304.4L209.1,304.4z"/>
	<path class="st0" d="M318.3,277.9c-0.8,14.4-11.6,24-32.6,24c-0.7,0-1.3,0.6-1.3,1.3c0,0.7,0.6,1.3,1.3,1.3h6.2
		c5.2,0,10.3,0.9,15.2,2.7l0,0c6.3,2.3,11.2,8.1,11.2,13.3h0l0,24.7c0,6.6-5.4,12-12,12h-0.1h-14.5h-0.1c-6.6,0-12-5.4-12-12v-16.9
		c0-0.7-0.6-1.3-1.3-1.3c-0.7,0-1.3,0.6-1.3,1.3v16.9c0,6.6-5.4,12-12,12h-14.8c-6.5,0-11.8-5.3-11.8-11.8v-40.5
		c0-0.5-0.1-1.1-0.1-1.6c0-7.8,4.7-15.6,14.2-17l32.8-4.3c0.7-0.1,1.2-0.7,1.1-1.4s-0.7-1.2-1.4-1.1l-35.4,4.5
		c-5.8,0.6-11.1-3.8-11.2-9.7c0,0,0-0.1,0-0.1v-0.9c0,0,0,0,0,0s0,0,0,0v-5.4v-5.4c0,0,0,0,0,0c0,0,0,0,0,0v-0.9
		c0-6.3,4.9-11.6,11.3-12h40C305.5,249.3,318.3,262.1,318.3,277.9L318.3,277.9z"/>
	<path class="st0" d="M347.8,249.3c6.4,0,11.8,5.4,11.8,12.1v84.1c0,6.3-5.2,11.7-11.7,11.7h-14.8c-6.7,0-12.1-5.4-12.1-12.1v-83.7
		c0-6.7,5.4-12.1,12.1-12.1L347.8,249.3L347.8,249.3z"/>
	<path class="st0" d="M422.6,288.3c11.2,1.4,19.6,11,19.6,22.3v17.9c0,15.8-12.8,28.6-28.6,28.6h-39.9c-6.3-0.4-11.2-5.7-11.2-12
		v-0.9c0,0,0,0,0,0c0,0,0,0,0,0v-8.3v-5.4c0,0,0,0,0,0c0,0,0,0,0,0v-0.9c0,0,0-0.1,0-0.1c0.1-5.8,5.3-10.3,11.1-9.7l35.3,4.5
		c0.7,0.1,1.3-0.4,1.4-1.1s-0.4-1.3-1.1-1.4l-27.2-3.5c-11.2-1.4-19.6-11-19.6-22.3l0-17.9c0-15.8,12.8-28.6,28.6-28.6h39.9
		c6.3,0.4,11.2,5.7,11.2,12v0.9c0,0,0,0,0,0c0,0,0,0,0,0v5.4v8.3c0,0,0,0,0,0c0,0,0,0,0,0v0.9c0,0,0,0.1,0,0.1
		c-0.1,5.8-5.3,10.3-11.1,9.7l-35.3-4.5c-0.7-0.1-1.3,0.4-1.4,1.1c-0.1,0.7,0.4,1.3,1.1,1.4h0l0,0L422.6,288.3L422.6,288.3z"/>
	<path class="st0" d="M455.9,249.3h27c0.2,0,0.5,0,0.7,0h14.6c0.2,0,0.5,0,0.7,0h6h20.7c6.6,0,12,5.4,12,12v9.7
		c0.1,7.2-6.3,11.1-13.6,11.7l-29.2,2.3c-0.7-0.1-1.2,0.2-1.3,0.9c-0.1,0.7,0.5,1.1,1.2,1.2c16.4,2,15.5,7.7,15.5,16.7v15.9v25.5
		c0,6.6-5.4,12-12,12h-14.8c-6.5,0-11.8-5.3-11.8-11.8v-42.1v-16.3l-14.2,0.8c-1.2,0.1-2.5,0.1-3.7-0.1c-5.5-1.1-9.6-6-9.6-11.8
		v-14.8C444.1,254.6,449.4,249.3,455.9,249.3L455.9,249.3z"/>
	<path class="st0" d="M620.3,274.1v8v4.6v1.3v32.8v11.4c0,13.7-11.2,24.8-24.8,24.8H565c-13.5,0-24.6-11.1-24.6-24.6v-29.3v-29.3
		c0-13.5,11.1-24.6,24.6-24.6h30.5C609.2,249.3,620.3,260.5,620.3,274.1z M581.7,289.8v-3v-1.2v-2.4v-2.5c0-0.7-0.6-1.3-1.3-1.3
		c-0.7,0-1.3,0.6-1.3,1.3v44.9c0,0.7,0.6,1.3,1.3,1.3c0.7,0,1.3-0.6,1.3-1.3v-4.8v-29V289.8z"/>
	<path class="st0" d="M703,344.1C703,344.1,703,344.1,703,344.1C703,344.2,703,344.2,703,344.1v1c0,6.3-4.9,11.6-11.2,12h-57.4
		c-6.3-0.4-11.2-5.7-11.2-12v-0.9c0,0,0,0,0,0s0,0,0,0l0-5.4l0-5.4c0,0,0,0,0,0c0,0,0,0,0,0v-0.9c0-0.3,0-0.5,0-0.8
		c0-0.1,0-0.3,0-0.4h0v-0.1c0,0,0,0,0-0.1v-10.6l0,0c0.1-5.2,5-11,11.2-13.3c0,0,0,0,0.1,0c4.8-1.8,10-2.7,15.1-2.7H649
		c0.7,0,1.3-0.6,1.3-1.3c0-0.7-0.6-1.3-1.3-1.3h0.5c-5.2,0-10.3-0.9-15.1-2.7c0,0,0,0-0.1,0c-6.3-2.3-11.2-8.1-11.2-13.3h0v-10.6
		c0,0,0,0,0-0.1v-0.1h0c0-0.1,0-0.3,0-0.4c0-0.2,0-0.5,0-0.8v-0.9c0,0,0,0,0,0c0,0,0,0,0,0l0-3.7h0v-8.2c0-6.6,5.4-12,12-12h14.6
		c6.6,0,12,5.4,12,12l0,20.2c-0.1,0.7,0.4,1.3,1.1,1.4l5.2,0.5c9.4,1.4,14.2,10.3,14.2,19.8c0,9-4.7,18-14.2,19.4l-11.9,1.8
		c-0.7,0.1-1.2,0.7-1.1,1.4s0.7,1.2,1.4,1.1l35.4-4.5c5.8-0.6,11.1,3.8,11.1,9.7c0,0,0,0.1,0,0.1v0.9c0,0,0,0,0,0c0,0,0,0,0,0l0,5.4
		L703,344.1L703,344.1z"/>
</g>
</svg>
